PathFileType	4	(X/Y/Z)	output.trc
DataRate	CameraRate	NumFrames	NumMarkers	Units	OrigDataRate	OrigDataStartFrame	OrigNumFrames
1.0	1.0	106	3	mm	1.0	1	1125
Frame#	Time	Joint1X	Joint1Y	Joint1Z	Joint2X	Joint2Y	Joint2Z	Joint3X	Joint3Y	Joint3Z
										
1	0.00000	0.54755	1.27808	0.67177	0.66935	1.09628	0.74974	0.72960	0.97943	0.89208
2	1.00000	0.55362	1.28687	0.69780	0.67129	1.09409	0.76473	0.72525	0.96208	0.89796
3	2.00000	0.55947	1.29533	0.72429	0.67259	1.09191	0.78112	0.72063	0.94511	0.90478
4	3.00000	0.56487	1.30318	0.75142	0.67280	1.08986	0.79994	0.71561	0.92905	0.91340
5	4.00000	0.56957	1.31022	0.77873	0.67179	1.08811	0.82145	0.71041	0.91466	0.92442
6	5.00000	0.57340	1.31633	0.80521	0.66981	1.08687	0.84513	0.70554	0.90272	0.93807
7	6.00000	0.57624	1.32150	0.82971	0.66733	1.08634	0.86988	0.70161	0.89386	0.95422
8	7.00000	0.57802	1.32584	0.85127	0.66480	1.08663	0.89436	0.69906	0.88832	0.97228
9	8.00000	0.57874	1.32952	0.86948	0.66243	1.08768	0.91728	0.69781	0.88582	0.99115
10	9.00000	0.57842	1.33272	0.88451	0.66006	1.08931	0.93747	0.69720	0.88566	1.00924
11	10.00000	0.57713	1.33561	0.89704	0.65717	1.09122	0.95400	0.69598	0.88683	1.02456
12	11.00000	0.57503	1.33837	0.90797	0.65312	1.09312	0.96608	0.69261	0.88828	1.03502
13	12.00000	0.57238	1.34121	0.91820	0.64737	1.09479	0.97321	0.68570	0.88913	1.03886
14	13.00000	0.56945	1.34432	0.92845	0.63971	1.09614	0.97531	0.67446	0.88891	1.03526
15	14.00000	0.56649	1.34788	0.93918	0.63040	1.09727	0.97302	0.65900	0.88759	1.02482
16	15.00000	0.56359	1.35198	0.95069	0.62010	1.09843	0.96783	0.64045	0.88561	1.00965
17	16.00000	0.56070	1.35658	0.96312	0.60969	1.09994	0.96190	0.62070	0.88371	0.99309
18	17.00000	0.55761	1.36155	0.97649	0.60017	1.10214	0.95766	0.60200	0.88274	0.97894
19	18.00000	0.55407	1.36665	0.99071	0.59238	1.10526	0.95718	0.58642	0.88338	0.97045
20	19.00000	0.54993	1.37161	1.00553	0.58693	1.10937	0.96166	0.57544	0.88597	0.96960
21	20.00000	0.54519	1.37620	1.02055	0.58409	1.11430	0.97119	0.56972	0.89039	0.97671
22	21.00000	0.53998	1.38026	1.03535	0.58375	1.11974	0.98489	0.56901	0.89611	0.99056
23	22.00000	0.53455	1.38369	1.04956	0.58538	1.12521	1.00129	0.57227	0.90233	1.00890
24	23.00000	0.52912	1.38650	1.06303	0.58799	1.13024	1.01870	0.57780	0.90819	1.02902
25	24.00000	0.52381	1.38871	1.07586	0.59027	1.13443	1.03563	0.58345	0.91300	1.04828
26	25.00000	0.51861	1.39038	1.08832	0.59078	1.13756	1.05089	0.58694	0.91644	1.06446
27	26.00000	0.51340	1.39156	1.10075	0.58827	1.13963	1.06369	0.58625	0.91855	1.07606
28	27.00000	0.50802	1.39228	1.11343	0.58205	1.14085	1.07367	0.58012	0.91975	1.08247
29	28.00000	0.50231	1.39265	1.12647	0.57227	1.14160	1.08091	0.56843	0.92062	1.08410
30	29.00000	0.49619	1.39279	1.13983	0.55995	1.14229	1.08607	0.55234	0.92175	1.08241
31	30.00000	0.48967	1.39289	1.15338	0.54673	1.14325	1.09030	0.53410	0.92346	1.07970
32	31.00000	0.48282	1.39313	1.16696	0.53444	1.14462	1.09512	0.51655	0.92575	1.07868
33	32.00000	0.47577	1.39366	1.18046	0.52453	1.14630	1.10216	0.50235	0.92825	1.08190
34	33.00000	0.46862	1.39451	1.19384	0.51771	1.14797	1.11280	0.49333	0.93034	1.09119
35	34.00000	0.46147	1.39559	1.20712	0.51374	1.14920	1.12786	0.49005	0.93138	1.10733
36	35.00000	0.45432	1.39670	1.22040	0.51165	1.14960	1.14746	0.49170	0.93092	1.12996
37	36.00000	0.44709	1.39760	1.23380	0.51007	1.14894	1.17099	0.49639	0.92886	1.15780
38	37.00000	0.43965	1.39810	1.24749	0.50771	1.14723	1.19730	0.50169	0.92549	1.18900
39	38.00000	0.43183	1.39811	1.26160	0.50373	1.14469	1.22480	0.50517	0.92139	1.22135
40	39.00000	0.42358	1.39764	1.27618	0.49786	1.14169	1.25166	0.50494	0.91728	1.25251
41	40.00000	0.41494	1.39678	1.29112	0.49034	1.13863	1.27598	0.49992	0.91376	1.28005
42	41.00000	0.40614	1.39561	1.30619	0.48166	1.13578	1.29608	0.49004	0.91112	1.30168
43	42.00000	0.39748	1.39420	1.32103	0.47228	1.13331	1.31076	0.47614	0.90925	1.31561
44	43.00000	0.38933	1.39261	1.33525	0.46244	1.13121	1.31960	0.45979	0.90765	1.32096
45	44.00000	0.38197	1.39092	1.34851	0.45213	1.12940	1.32316	0.44287	0.90567	1.31818
46	45.00000	0.37552	1.38926	1.36055	0.44122	1.12781	1.32292	0.42714	0.90278	1.30922
47	46.00000	0.36988	1.38782	1.37128	0.42966	1.12646	1.32091	0.41362	0.89895	1.29728
48	47.00000	0.36473	1.38684	1.38082	0.41753	1.12541	1.31929	0.40210	0.89484	1.28624
49	48.00000	0.35957	1.38654	1.38943	0.40501	1.12480	1.31982	0.39089	0.89182	1.27976
50	49.00000	0.35379	1.38708	1.39758	0.39224	1.12478	1.32343	0.37703	0.89176	1.28043
51	50.00000	0.34681	1.38856	1.40584	0.37913	1.12544	1.33019	0.35707	0.89648	1.28921
52	51.00000	0.33821	1.39098	1.41479	0.36530	1.12682	1.33954	0.32811	0.90715	1.30529
53	52.00000	0.32784	1.39429	1.42488	0.35019	1.12885	1.35071	0.28907	0.92372	1.32661
54	53.00000	0.31587	1.39843	1.43632	0.33334	1.13146	1.36327	0.24138	0.94475	1.35061
55	54.00000	0.30280	1.40327	1.44899	0.31468	1.13454	1.37745	0.18892	0.96760	1.37524
56	55.00000	0.28929	1.40867	1.46248	0.29462	1.13804	1.39411	0.13710	0.98920	1.39956
57	56.00000	0.27603	1.41444	1.47615	0.27404	1.14200	1.41450	0.09135	1.00683	1.42399
58	57.00000	0.26354	1.42036	1.48929	0.25403	1.14653	1.43962	0.05571	1.01884	1.44996
59	58.00000	0.25209	1.42616	1.50134	0.23554	1.15178	1.46972	0.03188	1.02502	1.47906
60	59.00000	0.24165	1.43160	1.51198	0.21908	1.15787	1.50400	0.01911	1.02636	1.51232
61	60.00000	0.23193	1.43644	1.52125	0.20460	1.16480	1.54063	0.01473	1.02455	1.54950
62	61.00000	0.22249	1.44055	1.52943	0.19154	1.17238	1.57715	0.01512	1.02139	1.58903
63	62.00000	0.21281	1.44390	1.53699	0.17909	1.18024	1.61108	0.01673	1.01824	1.62837
64	63.00000	0.20253	1.44657	1.54437	0.16655	1.18787	1.64043	0.01686	1.01591	1.66456
65	64.00000	0.19148	1.44878	1.55183	0.15365	1.19482	1.66408	0.01413	1.01466	1.69510
66	65.00000	0.17981	1.45083	1.55938	0.14067	1.20083	1.68189	0.00849	1.01451	1.71844
67	66.00000	0.16788	1.45307	1.56682	0.12836	1.20600	1.69459	0.00093	1.01551	1.73439
68	67.00000	0.15619	1.45580	1.57376	0.11763	1.21073	1.70346	-0.00708	1.01781	1.74405
69	68.00000	0.14512	1.45915	1.57984	0.10911	1.21556	1.70996	-0.01416	1.02159	1.74932
70	69.00000	0.13488	1.46307	1.58480	0.10284	1.22095	1.71536	-0.01952	1.02688	1.75238
71	70.00000	0.12537	1.46724	1.58859	0.09814	1.22699	1.72048	-0.02317	1.03335	1.75507
72	71.00000	0.11630	1.47120	1.59139	0.09377	1.23338	1.72567	-0.02582	1.04023	1.75851
73	72.00000	0.10732	1.47441	1.59351	0.08830	1.23950	1.73087	-0.02855	1.04651	1.76304
74	73.00000	0.09814	1.47643	1.59530	0.08063	1.24466	1.73587	-0.03232	1.05117	1.76839
75	74.00000	0.08863	1.47705	1.59702	0.07034	1.24837	1.74048	-0.03761	1.05360	1.77389
76	75.00000	0.07885	1.47630	1.59876	0.05787	1.25057	1.74470	-0.04420	1.05375	1.77879
77	76.00000	0.06889	1.47443	1.60042	0.04435	1.25161	1.74871	-0.05135	1.05220	1.78248
78	77.00000	0.05886	1.47188	1.60185	0.03109	1.25214	1.75278	-0.05806	1.04990	1.78469
79	78.00000	0.04877	1.46914	1.60292	0.01917	1.25282	1.75717	-0.06353	1.04783	1.78554
80	79.00000	0.03855	1.46665	1.60371	0.00900	1.25411	1.76198	-0.06751	1.04664	1.78549
81	80.00000	0.02809	1.46476	1.60453	0.00027	1.25606	1.76716	-0.07042	1.04649	1.78529
82	81.00000	0.01735	1.46366	1.60586	-0.00778	1.25831	1.77256	-0.07324	1.04699	1.78570
83	82.00000	0.00639	1.46338	1.60826	-0.01605	1.26033	1.77807	-0.07709	1.04750	1.78729
84	83.00000	-0.00462	1.46383	1.61219	-0.02508	1.26157	1.78372	-0.08283	1.04736	1.79027
85	84.00000	-0.01542	1.46483	1.61786	-0.03491	1.26177	1.78971	-0.09061	1.04625	1.79446
86	85.00000	-0.02578	1.46617	1.62522	-0.04508	1.26101	1.79640	-0.09983	1.04422	1.79928
87	86.00000	-0.03549	1.46767	1.63399	-0.05482	1.25971	1.80413	-0.10932	1.04170	1.80403
88	87.00000	-0.04449	1.46924	1.64374	-0.06349	1.25837	1.81304	-0.11786	1.03925	1.80805
89	88.00000	-0.05285	1.47079	1.65404	-0.07081	1.25736	1.82292	-0.12469	1.03731	1.81097
90	89.00000	-0.06073	1.47232	1.66448	-0.07700	1.25679	1.83324	-0.12986	1.03602	1.81280
91	90.00000	-0.06834	1.47377	1.67471	-0.08268	1.25645	1.84323	-0.13418	1.03523	1.81389
92	91.00000	-0.07590	1.47508	1.68436	-0.08858	1.25600	1.85205	-0.13879	1.03457	1.81479
93	92.00000	-0.08350	1.47617	1.69304	-0.09524	1.25511	1.85902	-0.14469	1.03365	1.81603
94	93.00000	-0.09114	1.47691	1.70032	-0.10283	1.25362	1.86375	-0.15221	1.03222	1.81796
95	94.00000	-0.09870	1.47726	1.70589	-0.11106	1.25160	1.86620	-0.16093	1.03021	1.82065
96	95.00000	-0.10603	1.47722	1.70962	-0.11941	1.24929	1.86671	-0.16985	1.02773	1.82385
97	96.00000	-0.11296	1.47689	1.71177	-0.12735	1.24700	1.86587	-0.17791	1.02505	1.82708
98	97.00000	-0.11942	1.47643	1.71291	-0.13457	1.24499	1.86444	-0.18447	1.02247	1.82982
99	98.00000	-0.12542	1.47604	1.71387	-0.14113	1.24341	1.86320	-0.18958	1.02028	1.83161
100	99.00000	-0.13112	1.47590	1.71549	-0.14742	1.24230	1.86283	-0.19399	1.01874	1.83223
101	100.00000	-0.13669	1.47613	1.71839	-0.15395	1.24165	1.86375	-0.19871	1.01802	1.83176
102	101.00000	-0.14230	1.47678	1.72270	-0.16115	1.24145	1.86611	-0.20464	1.01819	1.83051
103	102.00000	-0.14803	1.47783	1.72813	-0.16917	1.24171	1.86973	-0.21216	1.01924	1.82899
104	103.00000	-0.15385	1.47920	1.73401	-0.17779	1.24249	1.87420	-0.22102	1.02107	1.82770
105	104.00000	-0.15965	1.48081	1.73959	-0.18655	1.24379	1.87899	-0.23051	1.02350	1.82706
106	105.00000	-0.16530	1.48254	1.74427	-0.19490	1.24556	1.88359	-0.23977	1.02628	1.82724
